<svg xmlns="http://www.w3.org/2000/svg" xmlns:xlink="http://www.w3.org/1999/xlink" width="1080" zoomAndPan="magnify" viewBox="0 0 810 809.999993" height="1080" preserveAspectRatio="xMidYMid meet" version="1.0"><defs><g/></defs><rect x="-81" width="972" fill="#ffffff" y="-80.999999" height="971.999992" fill-opacity="1"/><rect x="-81" width="972" fill="#151515" y="-80.999999" height="971.999992" fill-opacity="1"/><g fill="#f9232c" fill-opacity="1"><g transform="translate(49.409775, 508.48409)"><g><path d="M 16.828125 -140.96875 C 23.566406 -140.96875 29.316406 -142.160156 34.078125 -144.546875 C 38.847656 -146.929688 42.847656 -150.015625 46.078125 -153.796875 C 49.304688 -157.585938 51.691406 -161.9375 53.234375 -166.84375 C 54.773438 -171.757812 55.546875 -176.742188 55.546875 -181.796875 L 55.546875 -257.53125 C 55.546875 -269.039062 56.804688 -279.28125 59.328125 -288.25 C 61.859375 -297.226562 66.207031 -304.734375 72.375 -310.765625 C 78.550781 -316.796875 86.757812 -321.425781 97 -324.65625 C 107.238281 -327.882812 119.929688 -329.5 135.078125 -329.5 L 136.765625 -329.5 L 136.765625 -298.78125 C 120.773438 -298.78125 109.34375 -295.90625 102.46875 -290.15625 C 95.59375 -284.40625 92.15625 -273.390625 92.15625 -257.109375 L 92.15625 -192.3125 C 92.15625 -173.789062 89.695312 -159.476562 84.78125 -149.375 C 79.875 -139.28125 72.9375 -131.429688 63.96875 -125.828125 C 72.9375 -120.210938 79.875 -112.351562 84.78125 -102.25 C 89.695312 -92.15625 92.15625 -77.847656 92.15625 -59.328125 L 92.15625 5.46875 C 92.15625 21.738281 95.59375 32.75 102.46875 38.5 C 109.34375 44.25 120.773438 47.125 136.765625 47.125 L 136.765625 77.84375 L 135.078125 77.84375 C 119.929688 77.84375 107.238281 76.300781 97 73.21875 C 86.757812 70.132812 78.550781 65.503906 72.375 59.328125 C 66.207031 53.160156 61.859375 45.585938 59.328125 36.609375 C 56.804688 27.628906 55.546875 17.390625 55.546875 5.890625 L 55.546875 -69.859375 C 55.546875 -74.898438 54.773438 -79.875 53.234375 -84.78125 C 51.691406 -89.695312 49.304688 -94.046875 46.078125 -97.828125 C 42.847656 -101.617188 38.847656 -104.707031 34.078125 -107.09375 C 29.316406 -109.476562 23.566406 -110.671875 16.828125 -110.671875 Z M 16.828125 -140.96875 "/></g></g></g><g fill="#f9232c" fill-opacity="1"><g transform="translate(274.157706, 184.204422)"><g><path d="M 83.765625 114.625 C 78.828125 119.21875 75.425781 124.007812 73.5625 129 C 71.707031 134 70.890625 138.984375 71.109375 143.953125 C 71.328125 148.921875 72.546875 153.726562 74.765625 158.375 C 76.992188 163.019531 79.828125 167.191406 83.265625 170.890625 L 134.890625 226.296875 C 142.734375 234.722656 148.785156 243.082031 153.046875 251.375 C 157.316406 259.664062 159.25 268.117188 158.84375 276.734375 C 158.445312 285.347656 155.597656 294.328125 150.296875 303.671875 C 145.003906 313.015625 136.816406 322.847656 125.734375 333.171875 L 124.5 334.328125 L 103.5625 311.84375 C 115.257812 300.945312 121.664062 291.050781 122.78125 282.15625 C 123.894531 273.257812 118.898438 262.859375 107.796875 250.953125 L 63.640625 203.53125 C 51.015625 189.976562 43.054688 177.832031 39.765625 167.09375 C 36.472656 156.351562 36.203125 145.878906 38.953125 135.671875 C 28.554688 137.671875 18.117188 136.648438 7.640625 132.609375 C -2.828125 128.566406 -14.375 119.769531 -27 106.21875 L -71.171875 58.8125 C -82.253906 46.90625 -92.269531 41.191406 -101.21875 41.671875 C -110.175781 42.148438 -120.503906 47.835938 -132.203125 58.734375 L -153.140625 36.25 L -151.90625 35.09375 C -140.820312 24.769531 -130.476562 17.25 -120.875 12.53125 C -111.28125 7.8125 -102.117188 5.609375 -93.390625 5.921875 C -84.671875 6.234375 -76.328125 8.8125 -68.359375 13.65625 C -60.390625 18.5 -52.488281 25.128906 -44.65625 33.546875 L 6.96875 88.984375 C 10.40625 92.671875 14.359375 95.785156 18.828125 98.328125 C 23.304688 100.867188 28.015625 102.425781 32.953125 103 C 37.898438 103.570312 42.929688 103.101562 48.046875 101.59375 C 53.160156 100.09375 58.1875 97.046875 63.125 92.453125 Z M 83.765625 114.625 "/></g></g></g><g fill="#f9232c" fill-opacity="1"><g transform="translate(778.319765, 260.035926)"><g><path d="M -16.828125 140.96875 C -23.566406 140.96875 -29.316406 142.160156 -34.078125 144.546875 C -38.847656 146.929688 -42.847656 150.015625 -46.078125 153.796875 C -49.304688 157.585938 -51.691406 161.9375 -53.234375 166.84375 C -54.773438 171.757812 -55.546875 176.742188 -55.546875 181.796875 L -55.546875 257.53125 C -55.546875 269.039062 -56.804688 279.28125 -59.328125 288.25 C -61.859375 297.226562 -66.207031 304.734375 -72.375 310.765625 C -78.550781 316.796875 -86.757812 321.425781 -97 324.65625 C -107.238281 327.882812 -119.929688 329.5 -135.078125 329.5 L -136.765625 329.5 L -136.765625 298.78125 C -120.773438 298.78125 -109.34375 295.90625 -102.46875 290.15625 C -95.59375 284.40625 -92.15625 273.390625 -92.15625 257.109375 L -92.15625 192.3125 C -92.15625 173.789062 -89.695312 159.476562 -84.78125 149.375 C -79.875 139.28125 -72.9375 131.429688 -63.96875 125.828125 C -72.9375 120.210938 -79.875 112.351562 -84.78125 102.25 C -89.695312 92.15625 -92.15625 77.847656 -92.15625 59.328125 L -92.15625 -5.46875 C -92.15625 -21.738281 -95.59375 -32.75 -102.46875 -38.5 C -109.34375 -44.25 -120.773438 -47.125 -136.765625 -47.125 L -136.765625 -77.84375 L -135.078125 -77.84375 C -119.929688 -77.84375 -107.238281 -76.300781 -97 -73.21875 C -86.757812 -70.132812 -78.550781 -65.503906 -72.375 -59.328125 C -66.207031 -53.160156 -61.859375 -45.585938 -59.328125 -36.609375 C -56.804688 -27.628906 -55.546875 -17.390625 -55.546875 -5.890625 L -55.546875 69.859375 C -55.546875 74.898438 -54.773438 79.875 -53.234375 84.78125 C -51.691406 89.695312 -49.304688 94.046875 -46.078125 97.828125 C -42.847656 101.617188 -38.847656 104.707031 -34.078125 107.09375 C -29.316406 109.476562 -23.566406 110.671875 -16.828125 110.671875 Z M -16.828125 140.96875 "/></g></g></g><g fill="#f9232c" fill-opacity="1"><g transform="translate(385.138383, 358.567602)"><g><path d="M 106.5625 -93.828125 C 111.582031 -89.328125 116.660156 -86.375 121.796875 -84.96875 C 126.929688 -83.570312 131.960938 -83.207031 136.890625 -83.875 C 141.828125 -84.550781 146.507812 -86.203125 150.9375 -88.828125 C 155.363281 -91.460938 159.257812 -94.660156 162.625 -98.421875 L 213.125 -154.859375 C 220.800781 -163.429688 228.570312 -170.21875 236.4375 -175.21875 C 244.300781 -180.226562 252.539062 -182.921875 261.15625 -183.296875 C 269.78125 -183.679688 278.984375 -181.660156 288.765625 -177.234375 C 298.554688 -172.816406 309.097656 -165.554688 320.390625 -155.453125 L 321.640625 -154.328125 L 301.15625 -131.4375 C 289.25 -142.101562 278.816406 -147.582031 269.859375 -147.875 C 260.898438 -148.175781 250.988281 -142.265625 240.125 -130.140625 L 196.921875 -81.84375 C 184.566406 -68.050781 173.191406 -59.03125 162.796875 -54.78125 C 152.398438 -50.53125 141.992188 -49.304688 131.578125 -51.109375 C 134.515625 -40.941406 134.445312 -30.457031 131.375 -19.65625 C 128.300781 -8.851562 120.585938 3.445312 108.234375 17.25 L 65.03125 65.53125 C 54.175781 77.65625 49.394531 88.148438 50.6875 97.015625 C 51.976562 105.878906 58.578125 115.644531 70.484375 126.3125 L 50 149.203125 L 48.75 148.078125 C 37.457031 137.972656 29.019531 128.359375 23.4375 119.234375 C 17.863281 110.109375 14.835938 101.1875 14.359375 92.46875 C 13.878906 83.757812 15.691406 75.21875 19.796875 66.84375 C 23.898438 58.476562 29.789062 50.007812 37.46875 41.4375 L 87.984375 -15.015625 C 91.335938 -18.765625 94.078125 -22.984375 96.203125 -27.671875 C 98.328125 -32.367188 99.445312 -37.203125 99.5625 -42.171875 C 99.6875 -47.148438 98.769531 -52.113281 96.8125 -57.0625 C 94.851562 -62.019531 91.363281 -66.75 86.34375 -71.25 Z M 106.5625 -93.828125 "/></g></g></g></svg>