<svg xmlns="http://www.w3.org/2000/svg" xmlns:xlink="http://www.w3.org/1999/xlink" width="1080" zoomAndPan="magnify" viewBox="0 0 810 809.999993" height="1080" preserveAspectRatio="xMidYMid meet" version="1.0"><defs><g/></defs><g fill="#ffffff" fill-opacity="1"><g transform="translate(45.498076, 562.961315)"><g><path d="M 135.9375 38.71875 C 109.28125 38.15625 88.796875 35.554688 74.484375 30.921875 C 60.179688 26.296875 50.015625 18.648438 43.984375 7.984375 C 37.953125 -2.671875 34.9375 -17.675781 34.9375 -37.03125 L 34.9375 -105.625 C 34.9375 -115.726562 34.234375 -123.515625 32.828125 -128.984375 C 31.421875 -134.453125 28.753906 -138.726562 24.828125 -141.8125 C 20.898438 -144.90625 14.726562 -146.875 6.3125 -147.71875 L 6.3125 -188.125 C 14.726562 -188.957031 20.898438 -190.914062 24.828125 -194 C 28.753906 -197.09375 31.421875 -201.375 32.828125 -206.84375 C 34.234375 -212.3125 34.9375 -220.097656 34.9375 -230.203125 L 34.9375 -298.796875 C 34.9375 -318.441406 37.953125 -333.523438 43.984375 -344.046875 C 50.015625 -354.566406 60.179688 -362.140625 74.484375 -366.765625 C 88.796875 -371.390625 109.28125 -373.984375 135.9375 -374.546875 L 135.9375 -319.84375 C 126.394531 -319 119.238281 -317.523438 114.46875 -315.421875 C 109.695312 -313.316406 107.3125 -309.039062 107.3125 -302.59375 L 107.3125 -225.578125 C 107.3125 -207.335938 103.3125 -194.007812 95.3125 -185.59375 C 87.320312 -177.175781 76.453125 -171.285156 62.703125 -167.921875 C 76.453125 -164.546875 87.320312 -158.648438 95.3125 -150.234375 C 103.3125 -141.816406 107.3125 -128.632812 107.3125 -110.6875 L 107.3125 -33.671875 C 107.3125 -26.929688 109.765625 -22.507812 114.671875 -20.40625 C 119.585938 -18.300781 126.675781 -16.96875 135.9375 -16.40625 Z M 135.9375 38.71875 "/></g></g></g><g fill="#ffffff" fill-opacity="1"><g transform="translate(231.007355, 152.563261)"><g><path d="M -125.859375 64.328125 C -105.972656 46.566406 -89.21875 34.503906 -75.59375 28.140625 C -61.96875 21.773438 -49.3125 20.4375 -37.625 24.125 C -25.945312 27.820312 -13.515625 36.75 -0.328125 50.90625 L 46.421875 101.109375 C 53.316406 108.492188 59.140625 113.707031 63.890625 116.75 C 68.640625 119.800781 73.503906 121.117188 78.484375 120.703125 C 83.460938 120.285156 89.320312 117.515625 96.0625 112.390625 L 123.59375 141.953125 C 118.007812 148.304688 114.832031 153.953125 114.0625 158.890625 C 113.289062 163.828125 114.253906 168.773438 116.953125 173.734375 C 119.660156 178.691406 124.457031 184.867188 131.34375 192.265625 L 178.09375 242.453125 C 191.476562 256.828125 199.546875 269.914062 202.296875 281.71875 C 205.054688 293.53125 202.773438 306.003906 195.453125 319.140625 C 188.140625 332.285156 174.925781 348.144531 155.8125 366.71875 L 118.53125 326.703125 C 124.9375 319.566406 129.164062 313.601562 131.21875 308.8125 C 133.269531 304.03125 132.097656 299.28125 127.703125 294.5625 L 75.21875 238.203125 C 62.789062 224.859375 56.632812 212.378906 56.75 200.765625 C 56.863281 189.160156 60.804688 177.441406 68.578125 165.609375 C 56.210938 172.515625 44.234375 175.609375 32.640625 174.890625 C 21.054688 174.179688 9.144531 167.265625 -3.09375 154.140625 L -55.578125 97.78125 C -60.171875 92.84375 -64.984375 91.28125 -70.015625 93.09375 C -75.046875 94.90625 -81.132812 98.757812 -88.28125 104.65625 Z M -125.859375 64.328125 "/></g></g></g><g fill="#ffffff" fill-opacity="1"><g transform="translate(779.664105, 225.064353)"><g><path d="M -135.9375 -38.71875 C -109.28125 -38.15625 -88.796875 -35.554688 -74.484375 -30.921875 C -60.179688 -26.296875 -50.015625 -18.648438 -43.984375 -7.984375 C -37.953125 2.671875 -34.9375 17.675781 -34.9375 37.03125 L -34.9375 105.625 C -34.9375 115.726562 -34.234375 123.515625 -32.828125 128.984375 C -31.421875 134.453125 -28.753906 138.726562 -24.828125 141.8125 C -20.898438 144.90625 -14.726562 146.875 -6.3125 147.71875 L -6.3125 188.125 C -14.726562 188.957031 -20.898438 190.914062 -24.828125 194 C -28.753906 197.09375 -31.421875 201.375 -32.828125 206.84375 C -34.234375 212.3125 -34.9375 220.097656 -34.9375 230.203125 L -34.9375 298.796875 C -34.9375 318.441406 -37.953125 333.523438 -43.984375 344.046875 C -50.015625 354.566406 -60.179688 362.140625 -74.484375 366.765625 C -88.796875 371.390625 -109.28125 373.984375 -135.9375 374.546875 L -135.9375 319.84375 C -126.394531 319 -119.238281 317.523438 -114.46875 315.421875 C -109.695312 313.316406 -107.3125 309.039062 -107.3125 302.59375 L -107.3125 225.578125 C -107.3125 207.335938 -103.3125 194.007812 -95.3125 185.59375 C -87.320312 177.175781 -76.453125 171.285156 -62.703125 167.921875 C -76.453125 164.546875 -87.320312 158.648438 -95.3125 150.234375 C -103.3125 141.816406 -107.3125 128.632812 -107.3125 110.6875 L -107.3125 33.671875 C -107.3125 26.929688 -109.765625 22.507812 -114.671875 20.40625 C -119.585938 18.300781 -126.675781 16.96875 -135.9375 16.40625 Z M -135.9375 -38.71875 "/></g></g></g><g fill="#ffffff" fill-opacity="1"><g transform="translate(360.813189, 400.235915)"><g><path d="M 75.46875 119.515625 C 55.988281 101.304688 42.457031 85.707031 34.875 72.71875 C 27.300781 59.726562 24.820312 47.25 27.4375 35.28125 C 30.050781 23.3125 37.8125 10.117188 50.71875 -4.296875 L 96.46875 -55.40625 C 103.207031 -62.9375 107.875 -69.207031 110.46875 -74.21875 C 113.070312 -79.238281 113.941406 -84.207031 113.078125 -89.125 C 112.210938 -94.039062 108.925781 -99.625 103.21875 -105.875 L 130.15625 -135.984375 C 136.976562 -130.984375 142.882812 -128.320312 147.875 -128 C 152.863281 -127.6875 157.703125 -129.097656 162.390625 -132.234375 C 167.085938 -135.378906 172.804688 -140.710938 179.546875 -148.234375 L 225.296875 -199.359375 C 238.390625 -213.992188 250.691406 -223.21875 262.203125 -227.03125 C 273.710938 -230.851562 286.34375 -229.71875 300.09375 -223.625 C 313.84375 -217.53125 330.835938 -205.800781 351.078125 -188.4375 L 314.59375 -147.671875 C 306.914062 -153.410156 300.597656 -157.085938 295.640625 -158.703125 C 290.679688 -160.316406 286.054688 -158.722656 281.765625 -153.921875 L 230.40625 -96.53125 C 218.238281 -82.9375 206.367188 -75.671875 194.796875 -74.734375 C 183.222656 -73.796875 171.191406 -76.65625 158.703125 -83.3125 C 166.703125 -71.632812 170.875 -59.992188 171.21875 -48.390625 C 171.5625 -36.785156 165.75 -24.296875 153.78125 -10.921875 L 102.421875 46.46875 C 97.929688 51.488281 96.8125 56.421875 99.0625 61.265625 C 101.3125 66.109375 105.703125 71.832031 112.234375 78.4375 Z M 75.46875 119.515625 "/></g></g></g></svg>