<svg xmlns="http://www.w3.org/2000/svg" xmlns:xlink="http://www.w3.org/1999/xlink" width="1080" zoomAndPan="magnify" viewBox="0 0 810 809.999993" height="1080" preserveAspectRatio="xMidYMid meet" version="1.0"><defs><g/></defs><g fill="#000000" fill-opacity="1"><g transform="translate(391.841761, 413.838602)"><g><path d="M 1 -8.375 C 1.394531 -8.375 1.734375 -8.441406 2.015625 -8.578125 C 2.304688 -8.722656 2.546875 -8.90625 2.734375 -9.125 C 2.929688 -9.351562 3.070312 -9.613281 3.15625 -9.90625 C 3.25 -10.195312 3.296875 -10.492188 3.296875 -10.796875 L 3.296875 -15.296875 C 3.296875 -15.984375 3.367188 -16.59375 3.515625 -17.125 C 3.671875 -17.65625 3.929688 -18.097656 4.296875 -18.453125 C 4.660156 -18.816406 5.144531 -19.09375 5.75 -19.28125 C 6.363281 -19.476562 7.125 -19.578125 8.03125 -19.578125 L 8.125 -19.578125 L 8.125 -17.75 C 7.175781 -17.75 6.492188 -17.578125 6.078125 -17.234375 C 5.671875 -16.890625 5.46875 -16.238281 5.46875 -15.28125 L 5.46875 -11.421875 C 5.46875 -10.328125 5.320312 -9.476562 5.03125 -8.875 C 4.738281 -8.269531 4.328125 -7.800781 3.796875 -7.46875 C 4.328125 -7.132812 4.738281 -6.664062 5.03125 -6.0625 C 5.320312 -5.46875 5.46875 -4.625 5.46875 -3.53125 L 5.46875 0.328125 C 5.46875 1.296875 5.671875 1.945312 6.078125 2.28125 C 6.492188 2.625 7.175781 2.796875 8.125 2.796875 L 8.125 4.625 L 8.03125 4.625 C 7.125 4.625 6.363281 4.53125 5.75 4.34375 C 5.144531 4.164062 4.660156 3.890625 4.296875 3.515625 C 3.929688 3.148438 3.671875 2.703125 3.515625 2.171875 C 3.367188 1.640625 3.296875 1.03125 3.296875 0.34375 L 3.296875 -4.15625 C 3.296875 -4.445312 3.25 -4.738281 3.15625 -5.03125 C 3.070312 -5.320312 2.929688 -5.582031 2.734375 -5.8125 C 2.546875 -6.039062 2.304688 -6.222656 2.015625 -6.359375 C 1.734375 -6.503906 1.394531 -6.578125 1 -6.578125 Z M 1 -8.375 "/></g></g></g><g fill="#000000" fill-opacity="1"><g transform="translate(405.185151, 394.578968)"><g><path d="M 4.96875 6.8125 C 4.675781 7.082031 4.472656 7.363281 4.359375 7.65625 C 4.253906 7.957031 4.207031 8.253906 4.21875 8.546875 C 4.226562 8.835938 4.300781 9.117188 4.4375 9.390625 C 4.570312 9.671875 4.742188 9.925781 4.953125 10.15625 L 8.015625 13.4375 C 8.484375 13.945312 8.84375 14.445312 9.09375 14.9375 C 9.34375 15.425781 9.457031 15.925781 9.4375 16.4375 C 9.414062 16.945312 9.25 17.476562 8.9375 18.03125 C 8.625 18.59375 8.132812 19.179688 7.46875 19.796875 L 7.390625 19.859375 L 6.140625 18.515625 C 6.835938 17.867188 7.21875 17.28125 7.28125 16.75 C 7.351562 16.226562 7.066406 15.617188 6.421875 14.921875 L 3.78125 12.09375 C 3.039062 11.289062 2.570312 10.566406 2.375 9.921875 C 2.175781 9.273438 2.15625 8.65625 2.3125 8.0625 C 1.695312 8.164062 1.078125 8.097656 0.453125 7.859375 C -0.160156 7.628906 -0.84375 7.113281 -1.59375 6.3125 L -4.21875 3.5 C -4.882812 2.789062 -5.484375 2.445312 -6.015625 2.46875 C -6.546875 2.5 -7.160156 2.835938 -7.859375 3.484375 L -9.109375 2.140625 L -9.03125 2.078125 C -8.363281 1.460938 -7.742188 1.015625 -7.171875 0.734375 C -6.609375 0.453125 -6.066406 0.320312 -5.546875 0.34375 C -5.035156 0.375 -4.539062 0.53125 -4.0625 0.8125 C -3.582031 1.101562 -3.109375 1.5 -2.640625 2 L 0.421875 5.296875 C 0.617188 5.503906 0.847656 5.679688 1.109375 5.828125 C 1.378906 5.984375 1.660156 6.078125 1.953125 6.109375 C 2.253906 6.148438 2.554688 6.125 2.859375 6.03125 C 3.160156 5.945312 3.457031 5.769531 3.75 5.5 Z M 4.96875 6.8125 "/></g></g></g><g fill="#000000" fill-opacity="1"><g transform="translate(435.132406, 399.080712)"><g><path d="M -1 8.375 C -1.394531 8.375 -1.734375 8.441406 -2.015625 8.578125 C -2.304688 8.722656 -2.546875 8.90625 -2.734375 9.125 C -2.929688 9.351562 -3.070312 9.613281 -3.15625 9.90625 C -3.25 10.195312 -3.296875 10.492188 -3.296875 10.796875 L -3.296875 15.296875 C -3.296875 15.984375 -3.367188 16.59375 -3.515625 17.125 C -3.671875 17.65625 -3.929688 18.097656 -4.296875 18.453125 C -4.660156 18.816406 -5.144531 19.09375 -5.75 19.28125 C -6.363281 19.476562 -7.125 19.578125 -8.03125 19.578125 L -8.125 19.578125 L -8.125 17.75 C -7.175781 17.75 -6.492188 17.578125 -6.078125 17.234375 C -5.671875 16.890625 -5.46875 16.238281 -5.46875 15.28125 L -5.46875 11.421875 C -5.46875 10.328125 -5.320312 9.476562 -5.03125 8.875 C -4.738281 8.269531 -4.328125 7.800781 -3.796875 7.46875 C -4.328125 7.132812 -4.738281 6.664062 -5.03125 6.0625 C -5.320312 5.46875 -5.46875 4.625 -5.46875 3.53125 L -5.46875 -0.328125 C -5.46875 -1.296875 -5.671875 -1.945312 -6.078125 -2.28125 C -6.492188 -2.625 -7.175781 -2.796875 -8.125 -2.796875 L -8.125 -4.625 L -8.03125 -4.625 C -7.125 -4.625 -6.363281 -4.53125 -5.75 -4.34375 C -5.144531 -4.164062 -4.660156 -3.890625 -4.296875 -3.515625 C -3.929688 -3.148438 -3.671875 -2.703125 -3.515625 -2.171875 C -3.367188 -1.640625 -3.296875 -1.03125 -3.296875 -0.34375 L -3.296875 4.15625 C -3.296875 4.445312 -3.25 4.738281 -3.15625 5.03125 C -3.070312 5.320312 -2.929688 5.582031 -2.734375 5.8125 C -2.546875 6.039062 -2.304688 6.222656 -2.015625 6.359375 C -1.734375 6.503906 -1.394531 6.578125 -1 6.578125 Z M -1 8.375 "/></g></g></g><g fill="#000000" fill-opacity="1"><g transform="translate(411.784086, 404.936115)"><g><path d="M 6.328125 -5.5625 C 6.617188 -5.300781 6.914062 -5.128906 7.21875 -5.046875 C 7.53125 -4.960938 7.832031 -4.941406 8.125 -4.984375 C 8.425781 -5.023438 8.703125 -5.117188 8.953125 -5.265625 C 9.210938 -5.421875 9.445312 -5.613281 9.65625 -5.84375 L 12.65625 -9.203125 C 13.113281 -9.710938 13.578125 -10.113281 14.046875 -10.40625 C 14.515625 -10.707031 15.003906 -10.867188 15.515625 -10.890625 C 16.023438 -10.910156 16.570312 -10.789062 17.15625 -10.53125 C 17.738281 -10.269531 18.367188 -9.835938 19.046875 -9.234375 L 19.109375 -9.171875 L 17.890625 -7.8125 C 17.191406 -8.445312 16.570312 -8.769531 16.03125 -8.78125 C 15.5 -8.800781 14.910156 -8.457031 14.265625 -7.75 L 11.6875 -4.875 C 10.957031 -4.050781 10.28125 -3.507812 9.65625 -3.25 C 9.039062 -3 8.425781 -2.925781 7.8125 -3.03125 C 7.976562 -2.425781 7.972656 -1.804688 7.796875 -1.171875 C 7.617188 -0.535156 7.164062 0.191406 6.4375 1.015625 L 3.859375 3.890625 C 3.210938 4.609375 2.929688 5.226562 3.015625 5.75 C 3.097656 6.28125 3.488281 6.863281 4.1875 7.5 L 2.96875 8.875 L 2.90625 8.8125 C 2.226562 8.207031 1.722656 7.628906 1.390625 7.078125 C 1.054688 6.535156 0.875 6.003906 0.84375 5.484375 C 0.820312 4.972656 0.929688 4.46875 1.171875 3.96875 C 1.410156 3.476562 1.757812 2.972656 2.21875 2.453125 L 5.21875 -0.890625 C 5.414062 -1.109375 5.578125 -1.359375 5.703125 -1.640625 C 5.835938 -1.921875 5.910156 -2.207031 5.921875 -2.5 C 5.929688 -2.800781 5.875 -3.097656 5.75 -3.390625 C 5.632812 -3.691406 5.429688 -3.972656 5.140625 -4.234375 Z M 6.328125 -5.5625 "/></g></g></g></svg>